<svg xmlns="http://www.w3.org/2000/svg" viewBox="0 0 68 74.79"><defs><style>.cls-1{fill:#231f20;}</style></defs><title>ico_user</title><g id="Layer_2" data-name="Layer 2"><g id="Layer_1-2" data-name="Layer 1"><path class="cls-1" d="M64.93,53.7a30.94,30.94,0,0,1,3,15.78c-.24,3-1.31,4.58-4.42,4.56-7.13,0-14.27,0-21.4,0C32.7,74,23.33,74,14,74.07c-3,0-5.89.38-8.83.66-3.67.35-4.72-.82-5-4.6-.55-7.37.58-14.56,4.36-20.72C6.82,45.6,11.14,43,14.62,39.88c.71-.62,1.68-1,2.43-1.53,1.28-1,2.05-1.94.95-3.86C11.18,22.57,17.37,9.78,26,3,30.53-.53,36.61-.17,42.23.27,48.34.75,52.56,4.17,56,9.11a17.5,17.5,0,0,1,2.71,12.7C58,26.52,55.79,31,54,35.53c-.8,2-.44,3.14.84,4.73,3.46,4.31,6.65,8.83,10.12,13.44M32.64,5.7c-.94.48-1.87,1-2.82,1.44-4.44,2.16-5.38,6.76-7.14,10.65-3.46,7.69-.95,15.31,6.77,17.39,1.13.3,1.91,1.88,2.85,2.86-1.21.84-2.33,2.23-3.63,2.42-14.8,2.18-21.48,11.67-23,24.95-.55,4.77,1.91,4.75,5,4.51,5.51-.41,11-1.11,16.52-1.3,6.63-.23,13.29,0,19.93-.08,3.44-.06,6.87-.53,10.31-.63,4.08-.12,5.66-2.31,3.88-6.15-2-4.22-3.88-8.54-6.55-12.29-3-4.2-6.34-8.55-12.69-7.65-.66.1-1.49-1.08-2.24-1.67a16.27,16.27,0,0,1,2.46-3c1.25-.94,3-1.23,4.13-2.29,4.91-4.77,6.18-11,5.59-17.41-.67-7.28-7.29-13-13.9-11.83A33.2,33.2,0,0,1,32.64,5.7Z"/></g></g></svg>