<svg xmlns="http://www.w3.org/2000/svg" viewBox="0 0 104.75 79.42"><defs><style>.cls-1{fill:#231f20;}</style></defs><title>ico_mail</title><g id="Layer_2" data-name="Layer 2"><g id="Layer_1-2" data-name="Layer 1"><path class="cls-1" d="M53.36,4.14C66,2.83,78.06-.39,90.54.75c3,.27,5.89,1.34,8.78-.62a3,3,0,0,1,2.88.78,4.13,4.13,0,0,1-.2,3.36c-3.94,7.15-2.07,14.64-1.52,22.06.06.79,0,1.59,0,2.38-.12,11,.17,22,4,32.61.34,1-.61,2.29-.57,3.44a58,58,0,0,0,.69,7.91c.45,2.64-.8,4-3.07,3.84-6.68-.48-13.32-1.52-20-1.9-4.22-.24-8.49.29-12.74.49-.55,0-1.11.06-1.66.11-4.82.46-9.64,1-14.46,1.35-1.85.14-3.73,0-5.58,0-4.47.19-8.93.36-13.38.69C25.39,77.9,17,78.54,8.66,79.35c-4.25.41-5.73-.84-5.91-5.07C2.51,68.62,2,63,1.67,57.33c0-.89.43-1.81.41-2.7-.19-8.79-.34-17.58-.71-26.36-.15-3.36-.92-6.68-1.3-10-.3-2.64.28-4.17,3.6-4.67,6.31-1,12.48-2.81,18.75-4.09,6-1.23,12.08-2.23,18.12-3.28,4.15-.73,8.32-1.38,12.82-2.06M26.7,33.87c-5.12-3.31-10.19-6.7-15.39-9.86-1.5-.91-3.4-1.19-5.12-1.75,0,1.63,0,3.27,0,4.9v.68c.23,10.38.42,20.76.7,31.13a77.62,77.62,0,0,0,.82,11.64c.27,1.47,2.17,3.55,3.53,3.71,2.34.29,4.82-.95,7.27-1.11,8.34-.57,16.69-.94,25-1.42,7.32-.43,14.65-1.31,22-1.26,10.06.06,20.11.8,30.17,1.28,2,.09,3.45-.56,3.4-2.69-.08-3.78-.24-7.57-.68-11.32-1-8.15-2.33-16.25-3.08-24.41-.5-5.4-.23-10.87-.3-16.31,0-.68.24-1.49,0-2-.61-1.14-1.11-2.88-2.92-.86-1.39,1.56-3.46,2.54-4.7,4.18q-10.89,14.39-21.49,29c-1.14,1.58-1.77,2.87-4.12,1.91-4.87-2-10-3.46-14.76-5.57-6.75-3-13.32-6.32-20.31-9.85M29.78,13c-5.29,1-10.6,1.87-15.86,3a3.41,3.41,0,0,0-2.13,1.74c-.17.39.8,1.53,1.48,2a132.65,132.65,0,0,0,11.87,7.61Q39.86,35,54.85,42.12c5.43,2.59,5.72,2.52,9.53-2.3,3.11-3.94,5.33-8.61,8.58-12.43,5.58-6.56,11.67-12.67,17.46-19,.64-.71,2.12-2.58-.14-2.72a88.55,88.55,0,0,0-16.12,0c-9.75,1.19-19.43,3-29.12,4.64C40.16,11.12,35.32,12.11,29.78,13Z"/></g></g></svg>