<svg xmlns="http://www.w3.org/2000/svg" xmlns:xlink="http://www.w3.org/1999/xlink" viewBox="0 0 105 105"><defs><style>.cls-1{fill:none;}.cls-2{clip-path:url(#clip-path);}.cls-3{fill:#f8f7f2;}</style><clipPath id="clip-path" transform="translate(0)"><rect class="cls-1" width="105" height="105"/></clipPath></defs><title>ico_menu</title><g id="Layer_2" data-name="Layer 2"><g id="Layer_1-2" data-name="Layer 1"><g id="Artwork_4" data-name="Artwork 4"><g class="cls-2"><polygon class="cls-3" points="5.38 0 0 5.38 0 28.94 5.38 34.33 94.23 34.33 94.23 47.12 5.38 47.12 0 52.5 0 76.06 5.38 81.44 94.23 81.44 94.23 94.23 0 94.23 0 99.54 5.46 105 99.61 105 105 99.61 105 76.06 99.61 70.67 10.77 70.67 10.77 57.88 99.61 57.88 105 52.5 105 28.94 99.61 23.56 10.77 23.56 10.77 10.77 105 10.77 105 5.38 99.61 0 5.38 0"/></g></g></g></g></svg>