<svg xmlns="http://www.w3.org/2000/svg" viewBox="0 0 83.68 68.49"><defs><style>.cls-1{fill:#231f20;}</style></defs><title>ico_cart</title><g id="Layer_2" data-name="Layer 2"><g id="Layer_1-2" data-name="Layer 1"><path class="cls-1" d="M38.07,4.75c6.19,0,12,.08,17.88,0,7.65-.14,15.3-.53,23-.59,1.6,0,3.94.53,4.6,1.62s-.52,3.12-1,4.73c-.9,3.38-2.05,6.71-2.73,10.13-.89,4.46-1.28,9-2.2,13.47A4.59,4.59,0,0,1,75,36.78a63.73,63.73,0,0,1-6.79,1.75C62.56,40,57,41.06,51.08,39.68c-2-.48-4.31,0-6.47-.09q-7.95-.29-15.89-.68c-2.53-.13-3.83.92-3.63,3.52.27,3.58,2.4,6.78,4.63,6.71,3.21-.11,6.41-.59,9.62-.62,8.85-.09,17.69-.06,26.54,0,2.57,0,5.32-.33,7.69.42,6.16,2,6.72,7.46,4.47,13.83A11.53,11.53,0,0,1,74.9,67.2a4.64,4.64,0,0,1-3.58,1c-4-.88-7.54-6.62-6.48-10.66.31-1.17,2.11-2.82,3.1-2.74,1.94.16,2.66,1.75,2,3.94-.29,1,.43,2.25.69,3.39,1-.82,2.53-1.46,2.87-2.5,1.49-4.44-1.67-7.42-7-7-2.07.15-4.16-.15-6.23,0C53.4,53,46.53,53.48,39.66,54c-2.75.19-5.5.66-8.25.62-3.5,0-3.91,2.06-3.56,4.64.67,4.84-.65,7.35-5,8.89-3.47,1.24-8.19-.69-10.11-4.12-3.52-6.34-2.7-8.9,4-12.27,4.35-2.21,4.06-2.14,3-7.14s-1.5-9.88-2.12-14.84c-1-7.59-1.74-15.2-2.87-22.77-.14-.87-2-2.06-3.11-2.11a45.77,45.77,0,0,0-8.25.61C1.17,5.76,0,4.46,0,2.85,0,2.09,2.12.91,3.39.74A90.13,90.13,0,0,1,14,0a5.22,5.22,0,0,1,5.69,4.35A3.18,3.18,0,0,0,22.23,6c5.17-.28,10.33-.83,15.84-1.28m2.39,29.38c3.11,0,6.31-.46,9.32.1,6.87,1.28,13.43.81,19.74-2.2a4.11,4.11,0,0,0,2-2.3c1.47-5.44,2.84-10.91,4.07-16.4.49-2.17-.34-3.86-2.89-3.77-3.67.12-7.32.55-11,.63-12.08.29-24.16.45-36.24.74-1.87,0-3.93.33-3.77,3,.26,4.46,0,9.06,1.13,13.32,1.2,4.69,3.72,6.85,9.11,6.9,2.61,0,5.23,0,8.53,0M16.2,59.76c.52,1.69,1,3.67,3.37,3,1.05-.3,2.54-1.42,2.62-2.27.13-1.35-.78-2.78-1.24-4.18-1.34.68-2.69,1.35-4,2.06C16.64,58.52,16.44,58.84,16.2,59.76Z"/></g></g></svg>