<svg xmlns="http://www.w3.org/2000/svg" viewBox="0 0 105.23 75.26"><defs><style>.cls-1{fill:#231f20;}</style></defs><title>ico_camera</title><g id="Layer_2" data-name="Layer 2"><g id="Layer_1-2" data-name="Layer 1"><path class="cls-1" d="M105.21,22.65c-.68,13-1.48,25.74-2,38.44a42.19,42.19,0,0,0,1.28,9.69c.7,3.48,0,4.6-3.61,4.47-11.54-.39-23.09-.81-34.62-1.38-4.38-.22-8.74-1.24-13.1-1.23-4.82,0-9.64,1.1-14.47,1.19A138.68,138.68,0,0,1,24.06,73c-5.45-.49-10.87-1.23-16.31-1.82a7.44,7.44,0,0,0-1.58.26c-1.48.17-3.7,1-4.27.33C.63,70.37-.87,68.43.63,66.1A4.53,4.53,0,0,0,1.31,64c.27-6.85.48-13.7.71-20.55s.52-13.93.64-20.9A42.21,42.21,0,0,0,2,16.34c-.39-3,1.36-3.86,3.9-3.93,1.14,0,2.28,0,3.42,0,5.1-.09,6.71-2.06,5.67-6.94-.79-3.77,0-5.17,4-5.3,7-.22,14-.23,20.95.09,1.31.07,2.87,1.92,3.71,3.32,1.2,2,2.08,3.52,4.91,3.43,12.57-.38,25.16-.48,37.75-.77,5.3-.12,10.59-.45,15.89-.66,2.35-.09,3.08,1.27,3.06,3.42,0,4.44,0,8.88,0,13.66M6.8,49.65c-.23,3.78-.33,7.57-.72,11.33-.3,2.84,1.29,4.37,3.55,4.65,8.83,1.1,17.67,2.24,26.54,2.68,5.13.26,10.32-1.1,15.48-1.14,4.37,0,8.73,1,13.11,1.24,9.71.56,19.43.87,29.15,1.44,2.9.18,3.93-.59,3.86-3.69-.21-8.91-.48-17.86,0-26.75.5-8.39,2.39-16.67,1.38-25.2C98.86,11.39,98,10.86,95.5,11c-6,.34-12.1.6-18.16.69-7.63.12-15.26,0-22.89.06-3.57,0-7.18,0-10.28,2.44a3.64,3.64,0,0,1-3.24.19c-6-3-11.64.15-17.4.8-3.85.44-7.63,1.43-11.46,2-4.82.69-6.3,2.89-5.31,7.78a33.75,33.75,0,0,1,.68,7.23c-.09,5.6-.41,11.2-.64,17.48M25.94,9.33c3.14-.35,6.31-.56,9.42-1.09,1.21-.21,2.3-1.15,3.45-1.76C37.67,6,36.55,5,35.39,5c-3.39-.21-6.8-.17-10.2,0C23.05,5,20,5.3,20,7.68s2.95,2,4.91,2A1.7,1.7,0,0,0,25.94,9.33Z"/><path class="cls-1" d="M79.93,51.36c-2.71,5.89-7.58,7.7-13.32,8.23-4.75.43-9.22-.13-13.29-2.77-3.81-2.47-5.66-8.63-5-13.26.76-5.52,3.84-9.35,7.6-12.88,1.68-1.59,3.59-2.53,6.09-1.23,4.2,2.18,8.7,3.81,12.74,6.23,6.22,3.71,7.7,8.66,5.2,15.68m-4.79-7.18a23.72,23.72,0,0,0-2-3.27,14.34,14.34,0,0,0-11.42-5.53c-3.84-.14-4.85,1.41-5.77,4.2-.23.7-.56,1.36-.85,2-1.5,3.53-.32,9.81,2.35,11.53,4.26,2.74,8.8,1.73,13,.17C74.24,52,75,48.43,75.14,44.18Z"/><path class="cls-1" d="M20.47,30.17c2.72-.56,5.08-1.33,7.49-1.6a9.12,9.12,0,0,1,4.77.75c.62.3,1,2.65.54,3.2a7.76,7.76,0,0,1-4,2.35,33,33,0,0,1-7.87.66,3.64,3.64,0,0,1-2.77-2.07C18.41,32.49,19.56,31.28,20.47,30.17Z"/></g></g></svg>