<svg version="1.1" id="ca-twitter-icon" xmlns="http://www.w3.org/2000/svg" xmlns:xlink="http://www.w3.org/1999/xlink" x="0px" y="0px"
	 viewBox="0 0 500 500" style="enable-background:new 0 0 500 500;" xml:space="preserve">
<style type="text/css">
	.st0{fill:#231F20;}
</style>
<path class="st0" d="M453.1,0H46.9C21,0,0,21,0,46.9v406.3C0,479,21,500,46.9,500h406.2c25.9,0,46.9-21,46.9-46.9V46.9
	C500,21,479,0,453.1,0z M382.5,182.1c0.1,2.9,0.2,5.9,0.2,8.9c0,90.4-68.8,194.6-194.6,194.6c-38.6,0-74.6-11.3-104.8-30.7
	c5.3,0.6,10.8,0.9,16.3,0.9c32,0,61.5-10.9,84.9-29.3c-29.9-0.5-55.2-20.3-63.9-47.5c4.2,0.8,8.5,1.2,12.9,1.2
	c6.2,0,12.3-0.8,18-2.4c-31.3-6.3-54.9-33.9-54.9-67.1c0-0.3,0-0.6,0-0.9c9.2,5.1,19.8,8.2,31,8.5c-18.4-12.3-30.4-33.2-30.4-56.9
	c0-12.5,3.4-24.3,9.2-34.4c33.7,41.4,84.1,68.6,141,71.5c-1.2-5-1.8-10.2-1.8-15.6c0-37.8,30.6-68.4,68.4-68.4
	c19.7,0,37.4,8.3,49.9,21.6c15.6-3.1,30.2-8.8,43.4-16.6c-5.1,16-15.9,29.4-30.1,37.8c13.8-1.7,27-5.3,39.3-10.8
	C407.5,160.4,395.9,172.4,382.5,182.1z"/>
</svg>
